<svg width="26" height="26" viewBox="0 0 26 26" fill="none" xmlns="http://www.w3.org/2000/svg">
<path d="M12.9769 0.40627C9.61167 0.412313 6.55621 1.73841 4.30041 3.89418L2.48681 2.08058C1.719 1.31277 0.40625 1.85653 0.40625 2.94234V9.75002C0.40625 10.4231 0.951895 10.9688 1.625 10.9688H8.43268C9.51849 10.9688 10.0623 9.65602 9.29449 8.88821L7.17438 6.76809C8.74169 5.30057 10.7697 4.48766 12.9243 4.46907C17.6164 4.42855 21.5715 8.22572 21.5309 13.0736C21.4925 17.6723 17.7641 21.5313 13 21.5313C10.9115 21.5313 8.93765 20.7859 7.38207 19.421C7.14121 19.2097 6.77747 19.2226 6.55088 19.4491L4.5368 21.4632C4.28939 21.7106 4.30163 22.1139 4.56127 22.3484C6.79443 24.3655 9.75376 25.5938 13 25.5938C19.9553 25.5938 25.5937 19.9554 25.5938 13.0001C25.5938 6.05279 19.9242 0.393829 12.9769 0.40627Z" fill="url(#paint0_linear_10496_10890)"/>
<defs>
<linearGradient id="paint0_linear_10496_10890" x1="13" y1="0.40625" x2="13" y2="25.5938" gradientUnits="userSpaceOnUse">
<stop stop-color="#FF8A00"/>
<stop offset="1" stop-color="#FF8A00" stop-opacity="0.6"/>
</linearGradient>
</defs>
</svg>
