<svg width="18" height="18" viewBox="0 0 18 18" fill="none" xmlns="http://www.w3.org/2000/svg">
<path d="M12.3881 9L17.4698 3.91832C18.0934 3.29473 18.0934 2.28367 17.4698 1.65957L16.3404 0.530195C15.7168 -0.0933985 14.7058 -0.0933985 14.0817 0.530195L9 5.61188L3.91832 0.530195C3.29473 -0.0933985 2.28367 -0.0933985 1.65957 0.530195L0.530195 1.65957C-0.0933985 2.28316 -0.0933985 3.29422 0.530195 3.91832L5.61188 9L0.530195 14.0817C-0.0933985 14.7053 -0.0933985 15.7163 0.530195 16.3404L1.65957 17.4698C2.28316 18.0934 3.29473 18.0934 3.91832 17.4698L9 12.3881L14.0817 17.4698C14.7053 18.0934 15.7168 18.0934 16.3404 17.4698L17.4698 16.3404C18.0934 15.7168 18.0934 14.7058 17.4698 14.0817L12.3881 9Z" fill="url(#paint0_linear_10496_10911)"/>
<defs>
<linearGradient id="paint0_linear_10496_10911" x1="9" y1="0.0625" x2="9" y2="17.9375" gradientUnits="userSpaceOnUse">
<stop stop-color="#FF1800"/>
<stop offset="1" stop-color="#FF1800" stop-opacity="0.6"/>
</linearGradient>
</defs>
</svg>
