<?xml version="1.0" standalone="no"?>
<!DOCTYPE svg PUBLIC "-//W3C//DTD SVG 20010904//EN"
 "http://www.w3.org/TR/2001/REC-SVG-20010904/DTD/svg10.dtd">
<svg version="1.0" xmlns="http://www.w3.org/2000/svg"
 width="280.000000pt" height="280.000000pt" viewBox="0 0 280.000000 280.000000"
 preserveAspectRatio="xMidYMid meet">
<metadata>
Created by potrace 1.14, written by Peter Selinger 2001-2017
</metadata>
<g transform="translate(0.000000,280.000000) scale(0.100000,-0.100000)"
fill="#000000" stroke="none">
<path d="M0 1400 l0 -1400 1400 0 1400 0 0 1400 0 1400 -1400 0 -1400 0 0
-1400z m1643 957 c3 -12 18 -131 33 -265 25 -211 26 -244 14 -252 -13 -8 -12
-10 3 -10 9 0 17 -5 17 -11 0 -16 109 -938 116 -982 l6 -37 -169 2 -168 3 -5
87 c-4 65 -2 89 8 93 16 6 15 32 -2 38 -8 3 -16 18 -18 34 -3 26 -6 28 -56 31
-36 2 -54 -1 -57 -10 -2 -7 -8 -72 -14 -144 l-9 -130 -102 -157 c-57 -86 -111
-159 -122 -163 -13 -4 -17 -11 -13 -22 5 -14 4 -15 -6 -5 -15 15 -39 17 -39 4
0 -5 7 -17 16 -26 13 -12 14 -19 4 -30 -7 -8 -20 -15 -28 -15 -12 0 -13 -3 -4
-12 14 -14 -2 -38 -25 -38 -10 0 -13 -6 -9 -15 3 -9 -10 -39 -31 -70 -28 -44
-39 -53 -49 -44 -9 8 -14 8 -14 1 0 -6 5 -12 11 -14 8 -3 2 -20 -16 -46 -15
-23 -29 -41 -30 -40 -1 2 31 255 71 563 40 308 105 805 144 1105 39 300 73
557 76 573 l6 27 228 0 c226 -1 228 -1 233 -23z"/>
<path d="M1525 2300 c-3 -5 -1 -10 4 -10 6 0 11 5 11 10 0 6 -2 10 -4 10 -3 0
-8 -4 -11 -10z"/>
<path d="M1510 2100 c0 -5 5 -10 10 -10 6 0 10 5 10 10 0 6 -4 10 -10 10 -5 0
-10 -4 -10 -10z"/>
<path d="M1635 2100 c-3 -5 1 -10 9 -10 9 0 16 5 16 10 0 6 -4 10 -9 10 -6 0
-13 -4 -16 -10z"/>
<path d="M1410 1916 c0 -40 -4 -66 -11 -66 -6 0 -8 -8 -4 -19 9 -29 -14 -234
-28 -244 -7 -5 -8 -10 -2 -13 13 -5 7 -175 -7 -191 -8 -10 -6 -13 6 -14 54 -2
93 0 108 6 15 6 16 9 3 22 -8 8 -15 29 -15 48 0 37 17 49 63 46 15 -2 34 3 42
9 12 10 12 15 -2 36 -23 35 -51 31 -69 -11 -31 -76 -44 -34 -47 162 -1 73 -5
133 -9 133 -5 0 -8 33 -8 74 0 41 -4 78 -10 81 -6 4 -10 -18 -10 -59z"/>
<path d="M1576 1943 c-11 -11 -7 -22 13 -32 16 -9 18 -8 14 9 -6 23 -17 33
-27 23z"/>
<path d="M1230 1924 c0 -8 5 -12 10 -9 6 3 10 10 10 16 0 5 -4 9 -10 9 -5 0
-10 -7 -10 -16z"/>
<path d="M1188 1894 c-17 -16 -6 -30 25 -31 18 0 23 1 10 4 -12 2 -23 11 -25
20 -2 8 -6 11 -10 7z"/>
<path d="M1270 1890 c0 -5 5 -10 10 -10 6 0 10 5 10 10 0 6 -4 10 -10 10 -5 0
-10 -4 -10 -10z"/>
<path d="M1500 1860 c-13 -8 -12 -10 3 -10 9 0 17 5 17 10 0 12 -1 12 -20 0z"/>
<path d="M1196 1818 c-5 -10 -17 -18 -28 -18 -11 0 -22 -8 -25 -19 -3 -11 -10
-18 -17 -15 -8 3 -13 -8 -14 -31 -2 -21 2 -35 9 -35 7 0 9 -9 6 -21 -3 -12 0
-22 9 -26 20 -7 32 6 15 16 -7 5 -10 14 -7 20 4 6 12 9 17 6 5 -4 9 -1 9 4 0
6 5 11 11 11 5 0 7 -4 4 -10 -3 -5 1 -10 9 -10 12 0 14 7 10 29 -5 23 -2 30
14 35 11 4 24 6 28 5 19 -3 34 2 34 11 0 6 -7 10 -15 10 -8 0 -15 5 -15 11 0
6 -8 8 -19 4 -15 -4 -20 0 -23 17 -4 20 -5 21 -12 6z"/>
<path d="M1350 1729 c0 -8 -14 -10 -39 -6 -24 3 -45 0 -53 -7 -7 -6 -12 -10
-10 -9 2 1 26 -10 53 -23 27 -14 54 -22 59 -19 11 7 9 75 -2 75 -5 0 -8 -5 -8
-11z"/>
<path d="M1580 1700 c0 -5 5 -10 11 -10 5 0 7 5 4 10 -3 6 -8 10 -11 10 -2 0
-4 -4 -4 -10z"/>
<path d="M1540 1679 c0 -5 5 -7 10 -4 6 3 10 8 10 11 0 2 -4 4 -10 4 -5 0 -10
-5 -10 -11z"/>
<path d="M1176 1641 c-2 -3 7 -11 20 -18 19 -9 24 -8 24 2 0 14 -37 28 -44 16z"/>
<path d="M1137 1633 c-4 -3 -7 -11 -7 -17 0 -6 5 -5 12 2 6 6 9 14 7 17 -3 3
-9 2 -12 -2z"/>
<path d="M1640 1620 c0 -5 5 -10 11 -10 5 0 7 5 4 10 -3 6 -8 10 -11 10 -2 0
-4 -4 -4 -10z"/>
<path d="M1590 1540 c0 -5 5 -10 10 -10 6 0 10 5 10 10 0 6 -4 10 -10 10 -5 0
-10 -4 -10 -10z"/>
<path d="M1560 1480 c0 -5 5 -10 10 -10 6 0 10 5 10 10 0 6 -4 10 -10 10 -5 0
-10 -4 -10 -10z"/>
<path d="M1540 1460 c0 -5 5 -10 11 -10 5 0 7 5 4 10 -3 6 -8 10 -11 10 -2 0
-4 -4 -4 -10z"/>
<path d="M1600 1418 c0 -19 2 -20 10 -8 13 19 13 30 0 30 -5 0 -10 -10 -10
-22z"/>
<path d="M1626 1384 c-9 -22 -8 -24 9 -24 8 0 15 6 15 14 0 22 -17 28 -24 10z"/>
<path d="M1580 1349 c0 -5 5 -7 10 -4 6 3 10 8 10 11 0 2 -4 4 -10 4 -5 0 -10
-5 -10 -11z"/>
<path d="M1229 1183 c-13 -16 -12 -17 4 -4 9 7 17 15 17 17 0 8 -8 3 -21 -13z"/>
<path d="M1445 1190 c-3 -5 -1 -10 4 -10 6 0 11 5 11 10 0 6 -2 10 -4 10 -3 0
-8 -4 -11 -10z"/>
<path d="M1150 750 c0 -5 5 -10 11 -10 5 0 7 5 4 10 -3 6 -8 10 -11 10 -2 0
-4 -4 -4 -10z"/>
<path d="M1140 714 c0 -8 5 -12 10 -9 6 4 8 11 5 16 -9 14 -15 11 -15 -7z"/>
<path d="M1030 597 c0 -8 7 -21 16 -28 14 -11 15 -10 12 11 -3 26 -28 41 -28
17z"/>
<path d="M1050 520 c0 -5 5 -10 11 -10 5 0 7 5 4 10 -3 6 -8 10 -11 10 -2 0
-4 -4 -4 -10z"/>
</g>
</svg>
