<svg width="114" height="114" viewBox="0 0 114 114" fill="none" xmlns="http://www.w3.org/2000/svg">
<path d="M93.6271 15.9769L10.653 39.3799C9.955 39.5768 9.33368 39.982 8.87212 40.5415C8.41056 41.1009 8.13076 41.7879 8.0701 42.5107C8.00944 43.2334 8.17082 43.9574 8.53267 44.586C8.89452 45.2145 9.4396 45.7177 10.0951 46.0282L48.2186 64.0867C48.9622 64.4389 49.5609 65.0376 49.9131 65.7812L67.9717 103.905C68.2822 104.56 68.7853 105.105 69.4139 105.467C70.0424 105.829 70.7664 105.99 71.4892 105.93C72.2119 105.869 72.8989 105.589 73.4584 105.128C74.0178 104.666 74.4231 104.045 74.62 103.347L98.0229 20.3727C98.1948 19.7632 98.2012 19.1189 98.0413 18.5062C97.8814 17.8934 97.561 17.3344 97.1132 16.8866C96.6655 16.4388 96.1064 16.1185 95.4936 15.9586C94.8809 15.7987 94.2366 15.805 93.6271 15.9769Z" stroke="#FF1800" stroke-width="5" stroke-linecap="round" stroke-linejoin="round"/>
<path d="M49.3687 64.6314L69.5212 44.4788" stroke="#FF1800" stroke-width="5" stroke-linecap="round" stroke-linejoin="round"/>
</svg>
